<svg width="247" height="140" viewBox="0 0 247 140" fill="none" xmlns="http://www.w3.org/2000/svg">
<path d="M18.9189 139.572C18.9189 139.572 -10.3757 104.329 3.94126 68.0459C13.2734 44.3961 48.2794 31.4371 68.0351 44.3961C76.4494 49.9155 103.444 44.5822 117.858 21.7314C145.867 -22.6732 243.621 4.29441 225.824 72.4708C217.212 105.463 252.035 106.663 234.291 139.642L18.9189 139.572Z" fill="#EBF3FA"/>
<path d="M40.6033 81.5682C40.6033 81.5682 37.6488 78.1258 40.4211 75.9392C40.4211 75.9392 42.4461 74.7149 44.0973 74.8142C44.0973 74.8142 41.7577 78.7325 42.5146 79.1222C43.2715 79.5119 44.8065 74.5683 44.8065 74.5683C44.8065 74.5683 49.4147 74.122 50.8971 74.8339C50.8971 74.8339 46.9576 78.0536 47.7873 78.2452C48.6169 78.4369 52.872 75.2767 52.872 75.2767C52.872 75.2767 57.1609 76.0056 56.9323 78.6187C56.7036 81.2317 55.2258 82.0385 54.5763 81.9692C53.9267 81.8997 50.1272 80.4511 50.0444 80.9826C49.9617 81.5142 52.2488 83.2512 53.8504 83.3325C53.8504 83.3325 50.8266 86.663 48.8169 85.7017C46.8073 84.7406 46.6357 83.217 45.383 82.6455C44.1303 82.074 43.061 82.0754 43.5781 82.6583C44.0953 83.241 46.3625 83.8075 47.0789 85.073C47.7953 86.3387 48.438 87.1922 46.3588 86.8798C44.2796 86.5675 40.9 85.0479 40.7516 83.308C40.6033 81.5682 40.6033 81.5682 40.6033 81.5682Z" fill="#58A0C8"/>
<path d="M54.8248 78.6891C54.8248 78.6891 43.1758 78.2409 40.6033 81.5681C40.6033 81.5681 40.0343 83.2699 38.2836 84.8195L38.0107 85.5623C38.0107 85.5623 40.0293 83.4366 40.7516 83.308C40.7516 83.308 39.622 79.1859 54.8248 78.6891Z" fill="#58A0C8"/>
<path d="M38.2836 84.8194C38.2836 84.8194 35.7833 86.6662 35.6096 89.9661L36.0634 90.0066C36.0634 90.0066 36.8619 86.5946 38.3054 85.2603C39.7488 83.926 38.2836 84.8194 38.2836 84.8194Z" fill="#58A0C8"/>
<path d="M30.2734 77.2388C30.2734 77.2388 34.9733 74.6102 32.78 71.0429C32.78 71.0429 31.0254 68.8525 29.1455 68.2892C29.1455 68.2892 30.1481 73.6089 29.1455 73.734C28.1428 73.8591 28.4562 67.726 28.4562 67.726C28.4562 67.726 23.5057 65.3478 21.5631 65.5355C21.5631 65.5355 24.6336 70.73 23.631 70.6048C22.6283 70.4797 19.1818 65.2226 19.1818 65.2226C19.1818 65.2226 14.106 64.2838 13.2914 67.2879C12.4767 70.2919 13.7927 71.7939 14.5447 71.9817C15.2966 72.1695 20.1218 72.1068 19.9965 72.7327C19.8711 73.3585 16.6126 74.3599 14.7954 73.7966C14.7954 73.7966 16.8006 78.7407 19.4325 78.4904C22.0644 78.2401 22.879 76.6129 24.5083 76.4878C26.1375 76.3627 27.3282 76.8007 26.5135 77.2388C25.6989 77.6768 22.9417 77.3823 21.6257 78.4997C20.3098 79.617 19.2445 80.3054 21.6884 80.8061C24.1323 81.3068 28.5188 80.9938 29.3961 79.1163C30.2734 77.2388 30.2734 77.2388 30.2734 77.2388Z" fill="#58A0C8"/>
<path d="M15.6101 68.2268C15.6101 68.2268 28.7696 72.4825 30.2735 77.2389C30.2735 77.2389 30.2108 79.3668 31.5268 81.8076V82.7464C31.5268 82.7464 30.1482 79.5546 29.3963 79.1164C29.3963 79.1164 32.3414 74.9858 15.6101 68.2268Z" fill="#58A0C8"/>
<path d="M31.5267 81.8074C31.5267 81.8074 33.5561 84.8852 32.3992 88.6318L31.8772 88.4917C31.8772 88.4917 32.3839 84.365 31.3221 82.2896C30.2603 80.2142 31.5267 81.8074 31.5267 81.8074Z" fill="#58A0C8"/>
<path d="M37.7504 73.6141C37.7504 73.6141 31.5552 70.1492 34.4463 65.4469C34.4463 65.4469 36.7592 62.5595 39.2373 61.817C39.2373 61.817 37.9156 68.8293 39.2373 68.9943C40.5589 69.1592 40.1459 61.0745 40.1459 61.0745C40.1459 61.0745 46.6715 57.9395 49.2322 58.1871C49.2322 58.1871 45.1847 65.0344 46.5064 64.8694C47.828 64.7045 52.3712 57.7746 52.3712 57.7746C52.3712 57.7746 59.062 56.5372 60.1359 60.497C61.2098 64.4568 59.4751 66.4368 58.4838 66.6843C57.4926 66.9318 51.1322 66.8492 51.2974 67.6743C51.4625 68.4993 55.758 69.8192 58.1534 69.0767C58.1534 69.0767 55.5102 75.5941 52.0408 75.264C48.5715 74.9341 47.4977 72.7891 45.35 72.6241C43.2023 72.4591 41.6328 73.0365 42.7067 73.6141C43.7806 74.1916 47.4151 73.8034 49.1497 75.2761C50.8844 76.749 52.2886 77.6564 49.0671 78.3164C45.8456 78.9764 40.0633 78.5639 38.907 76.089C37.7504 73.6141 37.7504 73.6141 37.7504 73.6141Z" fill="#D4E4F8"/>
<path d="M57.0795 61.7341C57.0795 61.7341 39.7329 67.344 37.7504 73.6138C37.7504 73.6138 37.833 76.4187 36.0984 79.6361V80.8736C36.0984 80.8736 37.9156 76.6662 38.9069 76.0887C38.9069 76.0887 35.0246 70.6438 57.0795 61.7341Z" fill="#D4E4F8"/>
<path d="M36.0984 79.6361C36.0984 79.6361 33.4232 83.6933 34.9483 88.6319L35.6365 88.4472C35.6365 88.4472 34.9684 83.0076 36.368 80.2718C37.7677 77.536 36.0984 79.6361 36.0984 79.6361Z" fill="#D4E4F8"/>
<path d="M37.5417 99.3417C44.244 99.3417 49.6772 93.9154 49.6772 87.2217H25.4063C25.4063 93.9154 30.8395 99.3417 37.5417 99.3417Z" fill="#D4E4F8"/>
<path d="M49.8447 99.9584H25.2387C25.2387 99.1326 25.909 98.4631 26.7359 98.4631H48.3475C49.1744 98.4631 49.8447 99.1325 49.8447 99.9584Z" fill="#D4E4F8"/>
<path d="M49.953 87.2217H25.0073V87.5934H49.953V87.2217Z" fill="#9FC1F4"/>
<path d="M100.161 139.32L100.221 139.319C100.711 139.31 101.09 138.909 101.044 138.449L97.7726 105.822L94.9182 106.076L99.6154 138.879C99.652 139.135 99.8867 139.325 100.161 139.32Z" fill="#C6C6C6"/>
<path d="M68.6626 139.32L68.6026 139.319C68.1123 139.31 67.7336 138.909 67.7798 138.449L71.051 105.822L73.9054 106.076L69.2082 138.879C69.1716 139.135 68.9369 139.325 68.6626 139.32Z" fill="#C6C6C6"/>
<path d="M123.239 139.32L123.299 139.319C123.789 139.31 124.168 138.909 124.121 138.449L120.85 105.822L117.996 106.076L122.693 138.879C122.73 139.135 122.964 139.325 123.239 139.32Z" fill="#C6C6C6"/>
<path d="M69.6369 101.075L63.8303 72.4375C63.085 68.5602 66.302 65.0147 70.4791 65.11L81.6774 65.3654C85.5405 65.4536 88.8994 68.0358 89.973 71.743L98.4682 101.075H69.6369Z" fill="#C6C6C6"/>
<path d="M73.1497 101.075L67.3432 72.4375C66.5979 68.5602 69.8149 65.0147 73.992 65.11L85.1903 65.3654C89.0534 65.4536 92.4122 68.0358 93.4859 71.743L101.981 101.075H73.1497Z" fill="#C6C6C6"/>
<path d="M71.2552 106.299H115.56C116.45 106.299 117.179 105.571 117.179 104.682V102.692C117.179 101.803 116.45 101.075 115.56 101.075H69.6368V104.682C69.6368 105.571 70.3651 106.299 71.2552 106.299Z" fill="#C6C6C6"/>
<path d="M92.0464 106.299H120.29C121.007 106.299 121.594 105.713 121.594 104.996V102.378C121.594 101.661 121.007 101.075 120.29 101.075H92.0464C91.3294 101.075 90.7427 101.661 90.7427 102.378V104.996C90.7427 105.713 91.3293 106.299 92.0464 106.299Z" fill="#C6C6C6"/>
<path d="M56.4172 100.703V101.68C56.4172 102.022 56.3064 102.301 56.171 102.301H20.4718C20.3365 102.301 20.2257 102.022 20.2257 101.68V100.703C20.2257 100.361 20.3365 100.081 20.4718 100.081H56.171C56.3064 100.081 56.4172 100.361 56.4172 100.703Z" fill="#9ABFE2"/>
<path d="M56.4173 100.703V101.679C56.4173 102.022 56.3154 102.301 56.1913 102.301H27.85C27.7258 102.301 27.6241 102.022 27.6241 101.679V100.703C27.6241 100.361 27.7258 100.081 27.85 100.081H56.1913C56.3155 100.081 56.4173 100.361 56.4173 100.703Z" fill="#BAD4F4"/>
<path d="M47.3818 102.301H22.0376V139.195H47.3818V102.301Z" fill="#58A0C8"/>
<path d="M54.4843 102.301H29.14V139.195H54.4843V102.301Z" fill="#DFEBFD"/>
<path d="M53.1227 137.158H30.5022V103.343H53.1227V137.158ZM30.7464 136.914H52.8784V103.587H30.7464V136.914Z" fill="#B7D3F3"/>
<path d="M53.0005 114.53H30.6243V114.773H53.0005V114.53Z" fill="#B7D3F3"/>
<path d="M53.0005 125.933H30.6243V126.177H53.0005V125.933Z" fill="#B7D3F3"/>
<path d="M44.1053 105.524H39.9531C39.7516 105.524 39.5867 105.359 39.5867 105.158C39.5867 104.957 39.7516 104.792 39.9531 104.792H44.1053C44.3069 104.792 44.4717 104.957 44.4717 105.158C44.4717 105.359 44.3068 105.524 44.1053 105.524Z" fill="#B7D3F3"/>
<path d="M44.1053 116.676H39.9531C39.7516 116.676 39.5867 116.511 39.5867 116.31C39.5867 116.109 39.7516 115.944 39.9531 115.944H44.1053C44.3069 115.944 44.4717 116.109 44.4717 116.31C44.4717 116.511 44.3068 116.676 44.1053 116.676Z" fill="#B7D3F3"/>
<path d="M44.1053 128.301H39.9531C39.7516 128.301 39.5867 128.136 39.5867 127.935C39.5867 127.734 39.7516 127.569 39.9531 127.569H44.1053C44.3069 127.569 44.4717 127.734 44.4717 127.935C44.4717 128.136 44.3068 128.301 44.1053 128.301Z" fill="#B7D3F3"/>
<path d="M155.911 35.9666H139.847C139.109 35.9666 138.506 35.3639 138.506 34.6274V19.1421C138.506 18.4056 139.109 17.803 139.847 17.803H155.911C156.649 17.803 157.252 18.4056 157.252 19.1421V34.6274C157.252 35.364 156.649 35.9666 155.911 35.9666Z" fill="#C0D8FB"/>
<path d="M155.215 35.1794H140.543C139.869 35.1794 139.318 34.6291 139.318 33.9564V19.8127C139.318 19.14 139.869 18.5896 140.543 18.5896H155.215C155.889 18.5896 156.44 19.14 156.44 19.8127V33.9564C156.44 34.6291 155.889 35.1794 155.215 35.1794Z" fill="#DFEBFD"/>
<path d="M147.879 20.6352C148.094 20.6352 148.267 20.4616 148.267 20.2474C148.267 20.0332 148.094 19.8596 147.879 19.8596C147.665 19.8596 147.491 20.0332 147.491 20.2474C147.491 20.4616 147.665 20.6352 147.879 20.6352Z" fill="#B7D3F3"/>
<path d="M150.624 20.7954C150.728 20.6082 150.965 20.5408 151.152 20.6448C151.34 20.7489 151.407 20.9851 151.303 21.1723C151.199 21.3595 150.963 21.427 150.775 21.3229C150.588 21.2188 150.52 20.9826 150.624 20.7954Z" fill="#B7D3F3"/>
<path d="M153.309 22.9255C153.489 22.8094 153.729 22.8612 153.845 23.0412C153.962 23.2212 153.91 23.4613 153.73 23.5773C153.55 23.6935 153.309 23.6416 153.193 23.4616C153.077 23.2816 153.128 23.0416 153.309 22.9255Z" fill="#B7D3F3"/>
<path d="M154.638 26.2224C154.853 26.2224 155.027 26.396 155.027 26.6102C155.027 26.8244 154.853 26.998 154.638 26.998C154.424 26.998 154.25 26.8244 154.25 26.6102C154.25 26.396 154.424 26.2224 154.638 26.2224Z" fill="#B7D3F3"/>
<path d="M153.959 30.0484C154.111 30.1999 154.111 30.4454 153.959 30.5969C153.808 30.7483 153.562 30.7483 153.41 30.5969C153.259 30.4454 153.259 30.1999 153.41 30.0484C153.562 29.897 153.808 29.897 153.959 30.0484Z" fill="#B7D3F3"/>
<path d="M151.521 32.4901C151.673 32.6415 151.673 32.8871 151.521 33.0385C151.369 33.19 151.123 33.19 150.972 33.0385C150.82 32.8871 150.82 32.6415 150.972 32.4901C151.123 32.3386 151.369 32.3386 151.521 32.4901Z" fill="#B7D3F3"/>
<path d="M147.491 33.7487C147.491 33.5346 147.665 33.3608 147.879 33.3608C148.094 33.3608 148.267 33.5345 148.267 33.7487C148.267 33.9629 148.094 34.1365 147.879 34.1365C147.665 34.1365 147.491 33.9629 147.491 33.7487Z" fill="#B7D3F3"/>
<path d="M145.122 20.7954C145.018 20.6082 144.781 20.5408 144.594 20.6448C144.406 20.7489 144.339 20.9851 144.443 21.1723C144.547 21.3595 144.783 21.427 144.971 21.3229C145.158 21.2188 145.226 20.9826 145.122 20.7954Z" fill="#B7D3F3"/>
<path d="M142.437 22.9255C142.257 22.8094 142.017 22.8612 141.9 23.0412C141.784 23.2212 141.836 23.4613 142.016 23.5773C142.196 23.6935 142.437 23.6416 142.553 23.4616C142.669 23.2816 142.617 23.0416 142.437 22.9255Z" fill="#B7D3F3"/>
<path d="M141.108 26.2224C140.893 26.2224 140.719 26.396 140.719 26.6102C140.719 26.8244 140.893 26.998 141.108 26.998C141.322 26.998 141.496 26.8244 141.496 26.6102C141.496 26.396 141.322 26.2224 141.108 26.2224Z" fill="#B7D3F3"/>
<path d="M141.786 30.0482C141.635 30.1996 141.635 30.4452 141.786 30.5966C141.938 30.7481 142.184 30.7481 142.336 30.5966C142.487 30.4452 142.487 30.1997 142.336 30.0482C142.184 29.8967 141.938 29.8967 141.786 30.0482Z" fill="#B7D3F3"/>
<path d="M144.225 32.4901C144.073 32.6415 144.073 32.8871 144.225 33.0385C144.377 33.19 144.622 33.19 144.774 33.0385C144.926 32.8871 144.926 32.6415 144.774 32.4901C144.622 32.3386 144.377 32.3386 144.225 32.4901Z" fill="#B7D3F3"/>
<path d="M147.774 26.6102C147.774 26.396 147.948 26.2224 148.163 26.2224C148.377 26.2224 148.551 26.396 148.551 26.6102C148.551 26.8244 148.377 26.998 148.163 26.998C147.948 26.998 147.774 26.8244 147.774 26.6102Z" fill="#B7D3F3"/>
<path d="M148.216 21.7654H148.11V26.6103H148.216V21.7654Z" fill="#B7D3F3"/>
<path d="M150.59 24.4579L148.018 26.4744L148.214 26.7243L150.786 24.7078L150.59 24.4579Z" fill="#B7D3F3"/>
<path d="M108.233 95.0822C105.837 99.2486 102.822 100.857 102.822 100.857H90.2801C90.2801 100.857 110.062 91.9039 108.233 95.0822Z" fill="#233862"/>
<path d="M123.702 136.474C123.567 137.788 125.397 138.128 127.52 138.256C129.642 138.384 128.996 138.812 131.901 139.37C134.806 139.927 135.98 139.144 136.195 138.754C136.387 138.407 135.039 137.848 133.604 137.217C133.423 137.138 133.242 137.056 133.062 136.975C131.446 136.245 130.551 134.782 129.3 133.42C128.115 132.131 127.021 128.031 127.021 128.031L123.075 127.145C123.075 127.145 124.146 130.836 124.515 132.411C124.731 133.337 124.386 134.366 124.08 135.149C123.916 135.575 123.749 136.011 123.702 136.474Z" fill="#FDF5AA"/>
<path d="M127.52 138.256C129.642 138.385 128.996 138.812 131.901 139.37C134.806 139.927 135.98 139.145 136.195 138.754C136.387 138.408 135.039 137.848 133.604 137.217L133.581 137.241C133.581 137.241 131.527 137.913 129.172 137.246C127.252 136.704 125.403 135.535 124.08 135.149C123.916 135.575 123.749 136.011 123.702 136.474C123.567 137.788 125.397 138.128 127.52 138.256Z" fill="#0F2549"/>
<path d="M117.724 90.8144C115.6 89.3253 101.554 86.6706 94.3864 85.9028L86.4638 79.0342C86.4638 79.0342 79.7202 89.0098 79.6667 96.6412C79.6418 100.2 81.2829 100.553 81.2832 100.554C81.2832 100.554 106.681 100.742 107.794 100.857C109.616 101.044 112.02 105.578 112.621 109.708C113.222 113.837 123.812 130.633 123.812 130.633C123.812 130.633 126.021 131.339 127.042 131.279C128.141 131.215 128.649 130.848 128.649 130.848C128.649 130.848 122.512 94.1727 117.724 90.8144Z" fill="#233862"/>
<path d="M117.133 136.474C116.997 137.788 118.828 138.128 120.95 138.256C123.073 138.384 122.426 138.812 125.331 139.37C128.236 139.927 129.411 139.144 129.626 138.754C129.817 138.407 128.47 137.848 127.034 137.217C126.854 137.138 126.673 137.056 126.492 136.975C124.877 136.245 123.982 134.782 122.731 133.42C121.546 132.131 120.452 128.031 120.452 128.031L116.506 127.145C116.506 127.145 117.577 130.836 117.945 132.411C118.162 133.337 117.817 134.366 117.511 135.149C117.346 135.575 117.18 136.011 117.133 136.474Z" fill="#FDF5AA"/>
<path d="M120.95 138.256C123.073 138.385 122.426 138.812 125.331 139.37C128.236 139.927 129.411 139.145 129.626 138.754C129.817 138.408 128.47 137.848 127.034 137.217L127.012 137.241C127.012 137.241 124.958 137.913 122.603 137.246C120.683 136.704 118.833 135.535 117.511 135.149C117.346 135.575 117.18 136.011 117.133 136.474C116.997 137.788 118.828 138.128 120.95 138.256Z" fill="#233862"/>
<path d="M111.096 90.8144C109.251 89.5207 103.703 88.5178 97.5788 87.7734C95.8855 87.5676 94.4953 86.338 94.0817 84.6852L79.8364 79.0342C79.8364 79.0342 73.0928 89.0098 73.0393 96.6412C73.0144 100.2 74.6555 100.553 74.6558 100.554C74.6558 100.554 100.053 100.742 101.167 100.857C102.989 101.044 105.393 105.578 105.993 109.708C106.594 113.837 117.185 130.633 117.185 130.633C117.185 130.633 119.393 131.339 120.415 131.279C121.513 131.215 122.022 130.848 122.022 130.848C122.022 130.848 115.885 94.1727 111.096 90.8144Z" fill="#2B478B"/>
<path d="M92.0341 37.5877C90.0765 36.561 87.098 36.4222 86.614 36.3572C80.8234 35.5799 77.3382 43.9836 77.1332 46.53C76.7554 51.2235 74.2694 51.9391 70.77 54.8784C63.7536 60.7722 65.8112 67.6209 69.6478 70.1656C71.9498 71.6924 76.0072 70.1653 76.0072 70.1653C76.0646 70.2054 87.1038 64.002 92.5455 61.0096C100.703 59.8515 97.0225 40.2038 92.0341 37.5877Z" fill="#233862"/>
<path d="M90.8265 58.1187C90.8518 58.1317 88.2535 59.3119 86.3777 58.693C84.6132 58.1123 83.059 55.4591 83.084 55.4552C83.8499 55.3443 84.6284 54.5898 84.8457 50.1184L85.1849 50.2037L90.8872 51.6431C90.8872 51.6431 90.6616 53.4473 90.5687 55.1532C90.49 56.5855 90.506 57.9486 90.8265 58.1187Z" fill="#FDF5AA"/>
<path d="M90.8871 51.6432C90.8871 51.6432 90.8872 52.0145 90.674 53.693C87.449 52.8806 86.0269 51.8125 85.0241 50.5901L90.8871 51.6432Z" fill="#58A0C8"/>
<path d="M92.1037 51.8704C92.1037 51.8704 84.563 53.0966 83.8708 48.3949C83.1785 43.6931 81.7389 40.6849 86.5242 39.7032C91.3095 38.7215 92.5113 40.3779 93.1244 41.8912C93.7377 43.4044 94.0474 51.4303 92.1037 51.8704Z" fill="#FDF5AA"/>
<path d="M92.1109 39.5062C92.1109 39.5062 88.6865 44.9049 85.6295 46.1835C82.5725 47.4621 81.0706 46.8129 81.0706 46.8129C81.0706 46.8129 82.4614 44.7069 82.8237 41.8791C82.9305 41.0455 83.4743 40.3309 84.2554 40.0184C86.4491 39.1409 90.6927 37.7573 92.1109 39.5062Z" fill="#233862"/>
<path d="M89.1029 40.0282C89.1029 40.0282 91.11 41.0559 91.9366 42.019C92.7343 42.9485 93.6556 45.4706 93.5898 46.6032C93.5898 46.6032 94.5799 41.1752 92.5176 39.3094C90.3309 37.3309 89.1029 40.0282 89.1029 40.0282Z" fill="#233862"/>
<path d="M96.8591 69.6053C96.6302 84.9136 96.7962 81.7147 95.1196 83.1673C94.7155 83.517 93.5798 83.7254 92.085 83.824C87.385 84.1356 79.123 83.3623 78.8087 82.4948C77.7247 79.4932 78.49 78.5607 77.5855 73.9653C77.4911 73.4767 77.3745 72.9476 77.2376 72.3715C76.4835 69.2152 75.7495 68.1415 78.425 63.0709C80.8513 58.4778 83.7045 54.7465 83.9312 54.881C90.3326 58.676 90.5517 55.4949 90.5517 55.4949C90.5517 55.4949 96.9713 62.1384 96.8591 69.6053Z" fill="#34699A"/>
<path d="M90.5517 55.4949C90.5517 55.4949 97.1032 56.604 97.8766 59.4364C98.6501 62.2688 103.202 78.9196 103.202 78.9196C103.202 78.9196 99.8532 79.5203 98.3063 77.9754C96.7594 76.4304 92.9238 63.642 92.9238 63.642L90.5517 55.4949Z" fill="#34699A"/>
<path d="M92.085 83.8238C87.385 84.1354 79.123 83.3621 78.8087 82.4946C77.7247 79.493 78.49 78.5604 77.5855 73.9651L79.8524 67.5898C79.8524 67.5898 79.4776 74.6891 81.574 76.5564C83.6681 78.4237 90.157 80.161 91.176 81.7212C91.6675 82.4699 91.9907 83.2208 92.085 83.8238Z" fill="#EBF3FF"/>
<path d="M86.7 80.838C86.7 80.838 91.3369 79.8068 92.0851 80.2179C92.8333 80.6289 94.6618 82.1256 94.8907 82.6463C95.1197 83.1671 93.225 82.2509 92.6088 82.0859C92.2097 81.979 91.1592 82.3437 90.6392 82.5168C88.4507 83.2453 87.1098 82.8705 87.1098 82.8705L86.7 80.838Z" fill="#FDF5AA"/>
<path d="M83.9312 54.8809C83.9312 54.8809 77.3686 55.2639 75.2133 58.2662C72.1793 62.4924 66.1606 80.5038 69.6099 82.9058C73.4945 85.6111 87.2893 83.6136 87.2893 83.6136C87.2893 83.6136 87.7484 81.4706 87.1096 80.434C86.4709 79.3973 76.0914 77.7227 75.6124 77.2444C75.1333 76.7659 81.6005 67.9148 81.6005 66.4794C81.6006 65.0441 83.9312 54.8809 83.9312 54.8809Z" fill="#34699A"/>
<path d="M92.3095 81.5068C92.3095 81.5068 93.2811 82.7585 93.5996 82.9078C93.9181 83.0572 94.1239 83.0199 94.1239 83.0199L93.4692 81.8431L92.3095 81.5068Z" fill="#FDF5AA"/>
<path d="M92.085 80.218L94.9097 81.588C94.9097 81.588 94.7896 81.7844 94.4417 81.7685C94.0939 81.7526 93.2166 81.4322 93.2166 81.4322L92.085 80.218Z" fill="#FDF5AA"/>
<path d="M102.491 83.4656H89.3715C89.3715 82.8888 89.8397 82.4211 90.4173 82.4211H102.491V83.4656Z" fill="#113F67"/>
<path d="M102.453 69.196H122.736L117.871 83.4658H97.4562L102.453 69.196Z" fill="#113F67"/>
<path d="M123.035 69.1956L118.169 83.4654H97.7548L102.752 69.1956H123.035Z" fill="#58A0C8"/>
<path d="M112.099 76.1988C111.973 76.7441 111.428 77.1861 110.883 77.1861C110.337 77.1861 109.996 76.7441 110.122 76.1988C110.248 75.6537 110.793 75.2117 111.339 75.2117C111.885 75.2117 112.225 75.6537 112.099 76.1988Z" fill="#34699A"/>
<path d="M84.837 86.676H173.723C174.097 86.676 174.4 86.3733 174.4 86V84.1416C174.4 83.7682 174.097 83.4656 173.723 83.4656H84.837C84.4632 83.4656 84.1601 83.7682 84.1601 84.1416V86C84.1601 86.3733 84.4632 86.676 84.837 86.676Z" fill="#182D4F"/>
<path d="M175.9 139.559L175.938 139.554C176.393 139.498 176.716 139.092 176.658 138.648L168.737 85.0991L165.837 85.1821L175.157 139.02C175.216 139.365 175.544 139.603 175.9 139.559Z" fill="#182D4F"/>
<path d="M81.8605 139.559L81.8223 139.554C81.367 139.498 81.0445 139.092 81.1021 138.648L89.0229 85.0991L91.9227 85.1821L82.6032 139.02C82.5435 139.365 82.2159 139.603 81.8605 139.559Z" fill="#182D4F"/>
<path d="M100.198 139.559L100.159 139.554C99.7041 139.498 99.3816 139.092 99.4392 138.648L107.36 85.0991L110.26 85.1821L100.94 139.02C100.881 139.365 100.553 139.603 100.198 139.559Z" fill="#182D4F"/>
<path d="M246.51 140H0.336561C0.15147 140 0 139.849 0 139.664V139.389C0 139.204 0.15147 139.053 0.336561 139.053H246.51C246.695 139.053 246.847 139.204 246.847 139.389V139.664C246.847 139.849 246.695 140 246.51 140Z" fill="#2E3552"/>
<path d="M146.928 139.515H162.646C163.402 138.594 163.123 135.194 163.009 134.084C162.985 133.86 162.969 133.73 162.969 133.73C162.969 133.73 157.602 129.442 156.864 132.725C156.842 132.828 156.815 132.929 156.785 133.028C155.856 136.099 151.69 137.495 149.284 137.884C147.72 138.137 147.142 138.949 146.928 139.515Z" fill="#233862"/>
<path d="M189.816 88.5073C189.249 88.5073 162.892 93.4496 158.533 98.8393C156.355 101.532 156.031 132.627 156.031 132.627C156.031 132.627 158.725 135.964 164.545 134.026C164.545 134.026 168.811 112.751 168.496 106.299C168.409 104.514 186.504 106.04 189.816 105.184C193.128 104.328 201.22 97.1326 199.437 93.6272C197.654 90.1217 189.816 88.5073 189.816 88.5073Z" fill="#233862"/>
<path d="M158.646 80.8928C158.646 80.8928 153.329 80.9645 152.072 81.5027C150.815 82.0409 148.264 83.2762 148.947 83.4657C149.629 83.6553 152.886 83.3876 153.59 83.4952C154.293 83.6028 155.161 83.4656 155.592 83.4657C156.023 83.4657 158.034 83.4657 158.034 83.4657L158.646 80.8928Z" fill="#FDF5AA"/>
<path d="M152.43 68.1505C152.43 68.1505 150.617 66.8569 148.857 66.6057C147.853 66.4625 146.877 66.2839 146.287 66.0763C144.663 65.5047 141.413 62.5865 141.659 62.2441C142.447 61.1471 146.241 63.4687 146.903 63.2194C147.566 62.9702 145.631 61.5961 146.304 61.1128C146.655 60.8604 147.477 62.1255 148.15 62.2525C149.059 62.4244 149.77 63.707 150.044 63.7739C150.577 63.9042 152.911 65.638 152.911 65.638L152.43 68.1505Z" fill="#FDF5AA"/>
<path d="M187.191 53.0437C187.191 53.0437 183.144 54.2964 179.157 65.2625C175.169 76.2287 173.655 76.8206 172.206 77.2512C170.756 77.6817 158.034 80.211 158.034 80.211V83.4655H177.637C177.637 83.4655 184.987 76.4823 187.191 71.7812C189.395 67.0801 187.191 53.0437 187.191 53.0437Z" fill="#113F67"/>
<path d="M139.981 139.515H155.699C156.455 138.594 156.176 135.194 156.062 134.084C156.038 133.86 156.022 133.73 156.022 133.73C156.022 133.73 150.655 129.442 149.918 132.725C149.895 132.828 149.868 132.929 149.838 133.028C148.909 136.099 144.743 137.495 142.337 137.884C140.773 138.137 140.195 138.949 139.981 139.515Z" fill="#1B3051"/>
<path d="M182.049 88.5073C181.482 88.5073 155.125 93.4496 150.766 98.8393C148.588 101.532 148.264 132.627 148.264 132.627C148.264 132.627 150.959 135.964 156.778 134.026C156.778 134.026 161.044 112.751 160.729 106.299C160.642 104.514 178.737 106.04 182.049 105.184C185.361 104.328 193.453 97.1326 191.67 93.6272C189.887 90.1217 182.049 88.5073 182.049 88.5073Z" fill="#2B478B"/>
<path d="M183.699 56.5191C185.595 56.3628 187.583 55.8581 189.301 55.3013C191.449 54.6052 193.18 53.588 192.064 51.6274C191.036 49.8205 189.372 45.784 189.485 42.4402L185.488 45.6568L182.773 47.8415C182.773 47.8415 182.784 49.1295 183.081 51.3868C183.135 51.7983 183.199 52.2425 183.274 52.7172C183.334 53.1007 183.158 53.4837 182.827 53.6883C182.807 53.701 182.786 53.7137 182.766 53.7265C181.417 54.5731 182.111 56.6501 183.699 56.5191Z" fill="#FDF5AA"/>
<path d="M182.773 47.3099C182.773 47.3099 182.634 47.7775 182.873 49.5045C185.293 49.1101 187.556 47.1822 187.556 47.1822C186.324 46.8443 185.875 45.5145 184.958 45.6385L182.773 47.3099Z" fill="#58A0C8"/>
<path d="M180.535 47.7034C180.535 47.7034 189.844 49.2481 190.718 43.4431C191.592 37.6379 193.382 33.9277 187.475 32.6959C181.568 31.4642 180.077 33.5056 179.314 35.3724C178.55 37.2391 178.135 47.152 180.535 47.7034Z" fill="#FDF5AA"/>
<path d="M177.944 32.8035C177.545 34.2014 178.614 35.9041 180.41 36.4646C183.077 37.2967 182.487 40.5628 183.687 40.5184C184.887 40.474 185.371 38.641 186.442 40.1055C187.356 41.3546 185.682 42.8357 185.797 43.5206C185.995 44.6966 187.839 47.1027 189.501 46.9821C191.164 46.8613 194.274 38.9719 193.652 36.5312C193.03 34.0904 190.541 31.5165 188.186 31.1615C185.831 30.8065 182.561 31.822 181.806 31.822C181.05 31.822 178.16 32.0484 177.944 32.8035Z" fill="#2B478B"/>
<path d="M199.561 61.1006C198.216 55.6916 194.497 50.016 191.982 50.0208C187.697 50.0289 181.537 51.1582 179.05 57.2858C177.218 61.7989 174.774 87.7594 177.536 89.6057C183.848 93.8265 198.481 102.442 201.08 93.6559C203.462 85.6051 201.897 70.4885 199.561 61.1006Z" fill="#58A0C8"/>
<path d="M189.154 55.7179C187.931 52.542 183.988 51.4441 181.3 53.5334C179.845 54.6634 178.064 56.2726 175.913 58.5604C167.916 67.0652 166.291 67.0124 164.789 66.8367C163.287 66.6611 150.598 63.9714 150.598 63.9714C150.598 63.9714 149.948 64.45 149.566 65.2239C149.055 66.2574 149.312 66.9618 149.312 66.9618C148.815 66.641 153.81 70.0797 156.297 71.4509C159.58 73.2615 164.528 74.9591 166.498 75.6037C167.057 75.7864 167.659 75.7772 168.212 75.5782C171.137 74.5252 180.959 70.6887 188.954 64.0314C191.061 62.2773 190.287 58.6625 189.154 55.7179Z" fill="#58A0C8"/>
<path d="M192.413 50.0724L191.443 47.8896C191.443 47.8896 182.759 48.5969 181.3 53.5331C181.3 53.5331 188.031 50.1783 192.413 50.0724Z" fill="#34699A"/>
<path d="M213.497 139.32L213.557 139.319C214.047 139.31 214.426 138.909 214.38 138.449L211.108 105.822L208.254 106.076L212.951 138.879C212.988 139.135 213.222 139.325 213.497 139.32Z" fill="#C6C6C6"/>
<path d="M196.659 139.32L196.719 139.319C197.21 139.31 197.588 138.909 197.542 138.449L194.271 105.822L191.417 106.076L196.114 138.879C196.151 139.135 196.385 139.325 196.659 139.32Z" fill="#C6C6C6"/>
<path d="M165.05 139.32L164.99 139.319C164.5 139.31 164.121 138.909 164.167 138.449L167.439 105.822L170.293 106.076L165.596 138.879C165.559 139.135 165.324 139.325 165.05 139.32Z" fill="#34699A"/>
<path d="M212.572 101.199L215.677 73.9484C216.084 70.0212 214.768 66.176 209.094 65.8785L199.112 65.2712C193.195 65.0273 190.524 69.9453 189.775 73.7313L183.849 103.687L212.572 101.199Z" fill="#C6C6C6"/>
<path d="M210.904 106.299H166.599C165.709 106.299 164.981 105.571 164.981 104.682V102.692C164.981 101.803 165.709 101.075 166.599 101.075H212.523V104.682C212.523 105.571 211.794 106.299 210.904 106.299Z" fill="#34699A"/>
<path d="M211.266 106.299H185.105C184.414 106.299 183.848 105.734 183.848 105.043V102.331C183.848 101.64 184.414 101.075 185.105 101.075H212.523V105.043C212.523 105.734 211.957 106.299 211.266 106.299Z" fill="#C6C6C6"/>
</svg>
