<svg width="141" height="40" viewBox="0 0 141 40" fill="none" xmlns="http://www.w3.org/2000/svg">
<path d="M48.4258 22.7617V10.9375H51.9297V22.7617C51.9297 23.9023 51.6797 24.8828 51.1797 25.7031C50.6797 26.5156 49.9961 27.1406 49.1289 27.5781C48.2695 28.0156 47.3008 28.2344 46.2227 28.2344C45.1055 28.2344 44.1172 28.0469 43.2578 27.6719C42.3984 27.2969 41.7227 26.7227 41.2305 25.9492C40.7383 25.168 40.4922 24.1797 40.4922 22.9844H44.0195C44.0195 23.6094 44.1055 24.1055 44.2773 24.4727C44.457 24.8398 44.7109 25.1016 45.0391 25.2578C45.3672 25.4141 45.7617 25.4922 46.2227 25.4922C46.668 25.4922 47.0547 25.3867 47.3828 25.1758C47.7109 24.9648 47.9648 24.6562 48.1445 24.25C48.332 23.8438 48.4258 23.3477 48.4258 22.7617ZM54.1797 21.7891V21.543C54.1797 20.6133 54.3125 19.7578 54.5781 18.9766C54.8438 18.1875 55.2305 17.5039 55.7383 16.9258C56.2461 16.3477 56.8711 15.8984 57.6133 15.5781C58.3555 15.25 59.207 15.0859 60.168 15.0859C61.1289 15.0859 61.9844 15.25 62.7344 15.5781C63.4844 15.8984 64.1133 16.3477 64.6211 16.9258C65.1367 17.5039 65.5273 18.1875 65.793 18.9766C66.0586 19.7578 66.1914 20.6133 66.1914 21.543V21.7891C66.1914 22.7109 66.0586 23.5664 65.793 24.3555C65.5273 25.1367 65.1367 25.8203 64.6211 26.4062C64.1133 26.9844 63.4883 27.4336 62.7461 27.7539C62.0039 28.0742 61.1523 28.2344 60.1914 28.2344C59.2305 28.2344 58.375 28.0742 57.625 27.7539C56.8828 27.4336 56.2539 26.9844 55.7383 26.4062C55.2305 25.8203 54.8438 25.1367 54.5781 24.3555C54.3125 23.5664 54.1797 22.7109 54.1797 21.7891ZM57.5547 21.543V21.7891C57.5547 22.3203 57.6016 22.8164 57.6953 23.2773C57.7891 23.7383 57.9375 24.1445 58.1406 24.4961C58.3516 24.8398 58.625 25.1094 58.9609 25.3047C59.2969 25.5 59.707 25.5977 60.1914 25.5977C60.6602 25.5977 61.0625 25.5 61.3984 25.3047C61.7344 25.1094 62.0039 24.8398 62.207 24.4961C62.4102 24.1445 62.5586 23.7383 62.6523 23.2773C62.7539 22.8164 62.8047 22.3203 62.8047 21.7891V21.543C62.8047 21.0273 62.7539 20.543 62.6523 20.0898C62.5586 19.6289 62.4062 19.2227 62.1953 18.8711C61.9922 18.5117 61.7227 18.2305 61.3867 18.0273C61.0508 17.8242 60.6445 17.7227 60.168 17.7227C59.6914 17.7227 59.2852 17.8242 58.9492 18.0273C58.6211 18.2305 58.3516 18.5117 58.1406 18.8711C57.9375 19.2227 57.7891 19.6289 57.6953 20.0898C57.6016 20.543 57.5547 21.0273 57.5547 21.543ZM68.2656 10H71.6406V25.0938L71.3008 28H68.2656V10ZM79.668 21.5312V21.7773C79.668 22.7227 79.5664 23.5898 79.3633 24.3789C79.168 25.168 78.8633 25.8516 78.4492 26.4297C78.0352 27 77.5195 27.4453 76.9023 27.7656C76.293 28.0781 75.5742 28.2344 74.7461 28.2344C73.9727 28.2344 73.3008 28.0781 72.7305 27.7656C72.168 27.4531 71.6953 27.0117 71.3125 26.4414C70.9297 25.8711 70.6211 25.2031 70.3867 24.4375C70.1523 23.6719 69.9766 22.8359 69.8594 21.9297V21.3906C69.9766 20.4844 70.1523 19.6484 70.3867 18.8828C70.6211 18.1172 70.9297 17.4492 71.3125 16.8789C71.6953 16.3086 72.168 15.8672 72.7305 15.5547C73.293 15.2422 73.957 15.0859 74.7227 15.0859C75.5586 15.0859 76.2852 15.2461 76.9023 15.5664C77.5273 15.8789 78.043 16.3242 78.4492 16.9023C78.8633 17.4727 79.168 18.1523 79.3633 18.9414C79.5664 19.7227 79.668 20.5859 79.668 21.5312ZM76.293 21.7773V21.5312C76.293 21.0156 76.2539 20.5312 76.1758 20.0781C76.1055 19.6172 75.9805 19.2148 75.8008 18.8711C75.6211 18.5195 75.375 18.2422 75.0625 18.0391C74.7578 17.8359 74.3633 17.7344 73.8789 17.7344C73.418 17.7344 73.0273 17.8125 72.707 17.9688C72.3867 18.125 72.1211 18.3438 71.9102 18.625C71.707 18.9062 71.5547 19.2422 71.4531 19.6328C71.3516 20.0156 71.2891 20.4375 71.2656 20.8984V22.4336C71.2891 23.0508 71.3906 23.5977 71.5703 24.0742C71.7578 24.543 72.0391 24.9141 72.4141 25.1875C72.7969 25.4531 73.293 25.5859 73.9023 25.5859C74.3789 25.5859 74.7734 25.4922 75.0859 25.3047C75.3984 25.1172 75.6406 24.8516 75.8125 24.5078C75.9922 24.1641 76.1172 23.7617 76.1875 23.3008C76.2578 22.832 76.293 22.3242 76.293 21.7773ZM88.6211 24.4961C88.6211 24.2539 88.5508 24.0352 88.4102 23.8398C88.2695 23.6445 88.0078 23.4648 87.625 23.3008C87.25 23.1289 86.707 22.9727 85.9961 22.832C85.3555 22.6914 84.7578 22.5156 84.2031 22.3047C83.6562 22.0859 83.1797 21.8242 82.7734 21.5195C82.375 21.2148 82.0625 20.8555 81.8359 20.4414C81.6094 20.0195 81.4961 19.5391 81.4961 19C81.4961 18.4688 81.6094 17.9688 81.8359 17.5C82.0703 17.0312 82.4023 16.6172 82.832 16.2578C83.2695 15.8906 83.8008 15.6055 84.4258 15.4023C85.0586 15.1914 85.7695 15.0859 86.5586 15.0859C87.6602 15.0859 88.6055 15.2617 89.3945 15.6133C90.1914 15.9648 90.8008 16.4492 91.2227 17.0664C91.6523 17.6758 91.8672 18.3711 91.8672 19.1523H88.4922C88.4922 18.8242 88.4219 18.5312 88.2812 18.2734C88.1484 18.0078 87.9375 17.8008 87.6484 17.6523C87.3672 17.4961 87 17.418 86.5469 17.418C86.1719 17.418 85.8477 17.4844 85.5742 17.6172C85.3008 17.7422 85.0898 17.9141 84.9414 18.1328C84.8008 18.3438 84.7305 18.5781 84.7305 18.8359C84.7305 19.0312 84.7695 19.207 84.8477 19.3633C84.9336 19.5117 85.0703 19.6484 85.2578 19.7734C85.4453 19.8984 85.6875 20.0156 85.9844 20.125C86.2891 20.2266 86.6641 20.3203 87.1094 20.4062C88.0234 20.5938 88.8398 20.8398 89.5586 21.1445C90.2773 21.4414 90.8477 21.8477 91.2695 22.3633C91.6914 22.8711 91.9023 23.5391 91.9023 24.3672C91.9023 24.9297 91.7773 25.4453 91.5273 25.9141C91.2773 26.3828 90.918 26.793 90.4492 27.1445C89.9805 27.4883 89.418 27.7578 88.7617 27.9531C88.1133 28.1406 87.3828 28.2344 86.5703 28.2344C85.3906 28.2344 84.3906 28.0234 83.5703 27.6016C82.7578 27.1797 82.1406 26.6445 81.7188 25.9961C81.3047 25.3398 81.0977 24.668 81.0977 23.9805H84.2969C84.3125 24.4414 84.4297 24.8125 84.6484 25.0938C84.875 25.375 85.1602 25.5781 85.5039 25.7031C85.8555 25.8281 86.2344 25.8906 86.6406 25.8906C87.0781 25.8906 87.4414 25.832 87.7305 25.7148C88.0195 25.5898 88.2383 25.4258 88.3867 25.2227C88.543 25.0117 88.6211 24.7695 88.6211 24.4961ZM97.3867 10V28H94.0117V10H97.3867ZM96.9062 21.2148H95.9805C95.9883 20.332 96.1055 19.5195 96.332 18.7773C96.5586 18.0273 96.8828 17.3789 97.3047 16.832C97.7266 16.2773 98.2305 15.8477 98.8164 15.543C99.4102 15.2383 100.066 15.0859 100.785 15.0859C101.41 15.0859 101.977 15.1758 102.484 15.3555C103 15.5273 103.441 15.8086 103.809 16.1992C104.184 16.582 104.473 17.0859 104.676 17.7109C104.879 18.3359 104.98 19.0938 104.98 19.9844V28H101.582V19.9609C101.582 19.3984 101.5 18.957 101.336 18.6367C101.18 18.3086 100.949 18.0781 100.645 17.9453C100.348 17.8047 99.9805 17.7344 99.543 17.7344C99.0586 17.7344 98.6445 17.8242 98.3008 18.0039C97.9648 18.1836 97.6953 18.4336 97.4922 18.7539C97.2891 19.0664 97.1406 19.4336 97.0469 19.8555C96.9531 20.2773 96.9062 20.7305 96.9062 21.2148ZM114.391 25.1406V19.4922C114.391 19.0859 114.324 18.7383 114.191 18.4492C114.059 18.1523 113.852 17.9219 113.57 17.7578C113.297 17.5938 112.941 17.5117 112.504 17.5117C112.129 17.5117 111.805 17.5781 111.531 17.7109C111.258 17.8359 111.047 18.0195 110.898 18.2617C110.75 18.4961 110.676 18.7734 110.676 19.0938H107.301C107.301 18.5547 107.426 18.043 107.676 17.5586C107.926 17.0742 108.289 16.6484 108.766 16.2812C109.242 15.9062 109.809 15.6133 110.465 15.4023C111.129 15.1914 111.871 15.0859 112.691 15.0859C113.676 15.0859 114.551 15.25 115.316 15.5781C116.082 15.9062 116.684 16.3984 117.121 17.0547C117.566 17.7109 117.789 18.5312 117.789 19.5156V24.9414C117.789 25.6367 117.832 26.207 117.918 26.6523C118.004 27.0898 118.129 27.4727 118.293 27.8008V28H114.883C114.719 27.6562 114.594 27.2266 114.508 26.7109C114.43 26.1875 114.391 25.6641 114.391 25.1406ZM114.836 20.2773L114.859 22.1875H112.973C112.527 22.1875 112.141 22.2383 111.812 22.3398C111.484 22.4414 111.215 22.5859 111.004 22.7734C110.793 22.9531 110.637 23.1641 110.535 23.4062C110.441 23.6484 110.395 23.9141 110.395 24.2031C110.395 24.4922 110.461 24.7539 110.594 24.9883C110.727 25.2148 110.918 25.3945 111.168 25.5273C111.418 25.6523 111.711 25.7148 112.047 25.7148C112.555 25.7148 112.996 25.6133 113.371 25.4102C113.746 25.207 114.035 24.957 114.238 24.6602C114.449 24.3633 114.559 24.082 114.566 23.8164L115.457 25.2461C115.332 25.5664 115.16 25.8984 114.941 26.2422C114.73 26.5859 114.461 26.9102 114.133 27.2148C113.805 27.5117 113.41 27.7578 112.949 27.9531C112.488 28.1406 111.941 28.2344 111.309 28.2344C110.504 28.2344 109.773 28.0742 109.117 27.7539C108.469 27.4258 107.953 26.9766 107.57 26.4062C107.195 25.8281 107.008 25.1719 107.008 24.4375C107.008 23.7734 107.133 23.1836 107.383 22.668C107.633 22.1523 108 21.7188 108.484 21.3672C108.977 21.0078 109.59 20.7383 110.324 20.5586C111.059 20.3711 111.91 20.2773 112.879 20.2773H114.836ZM123.766 18.0859V28H120.391V15.3203H123.566L123.766 18.0859ZM127.586 15.2383L127.527 18.3672C127.363 18.3438 127.164 18.3242 126.93 18.3086C126.703 18.2852 126.496 18.2734 126.309 18.2734C125.832 18.2734 125.418 18.3359 125.066 18.4609C124.723 18.5781 124.434 18.7539 124.199 18.9883C123.973 19.2227 123.801 19.5078 123.684 19.8438C123.574 20.1797 123.512 20.5625 123.496 20.9922L122.816 20.7812C122.816 19.9609 122.898 19.207 123.062 18.5195C123.227 17.8242 123.465 17.2188 123.777 16.7031C124.098 16.1875 124.488 15.7891 124.949 15.5078C125.41 15.2266 125.938 15.0859 126.531 15.0859C126.719 15.0859 126.91 15.1016 127.105 15.1328C127.301 15.1562 127.461 15.1914 127.586 15.2383ZM134.781 28.2344C133.797 28.2344 132.914 28.0781 132.133 27.7656C131.352 27.4453 130.688 27.0039 130.141 26.4414C129.602 25.8789 129.188 25.2266 128.898 24.4844C128.609 23.7344 128.465 22.9375 128.465 22.0938V21.625C128.465 20.6641 128.602 19.7852 128.875 18.9883C129.148 18.1914 129.539 17.5 130.047 16.9141C130.562 16.3281 131.188 15.8789 131.922 15.5664C132.656 15.2461 133.484 15.0859 134.406 15.0859C135.305 15.0859 136.102 15.2344 136.797 15.5312C137.492 15.8281 138.074 16.25 138.543 16.7969C139.02 17.3438 139.379 18 139.621 18.7656C139.863 19.5234 139.984 20.3672 139.984 21.2969V22.7031H129.906V20.4531H136.668V20.1953C136.668 19.7266 136.582 19.3086 136.41 18.9414C136.246 18.5664 135.996 18.2695 135.66 18.0508C135.324 17.832 134.895 17.7227 134.371 17.7227C133.926 17.7227 133.543 17.8203 133.223 18.0156C132.902 18.2109 132.641 18.4844 132.438 18.8359C132.242 19.1875 132.094 19.6016 131.992 20.0781C131.898 20.5469 131.852 21.0625 131.852 21.625V22.0938C131.852 22.6016 131.922 23.0703 132.062 23.5C132.211 23.9297 132.418 24.3008 132.684 24.6133C132.957 24.9258 133.285 25.168 133.668 25.3398C134.059 25.5117 134.5 25.5977 134.992 25.5977C135.602 25.5977 136.168 25.4805 136.691 25.2461C137.223 25.0039 137.68 24.6406 138.062 24.1562L139.703 25.9375C139.438 26.3203 139.074 26.6875 138.613 27.0391C138.16 27.3906 137.613 27.6797 136.973 27.9062C136.332 28.125 135.602 28.2344 134.781 28.2344Z" fill="white"/>
<path d="M18.5 31C25.9558 31 32 25.1797 32 18C32 10.8203 25.9558 5 18.5 5C11.0442 5 5 10.8203 5 18C5 25.1797 11.0442 31 18.5 31Z" stroke="white" stroke-width="2" stroke-linecap="round" stroke-linejoin="round"/>
<path d="M35 35L27.75 27.75" stroke="white" stroke-width="2" stroke-linecap="round" stroke-linejoin="round"/>
<rect x="6" y="6" width="25" height="24" rx="12" fill="#58A0C8"/>
<path d="M22 15.3333C23.1046 15.3333 24 14.4378 24 13.3333C24 12.2287 23.1046 11.3333 22 11.3333C20.8954 11.3333 20 12.2287 20 13.3333C20 14.4378 20.8954 15.3333 22 15.3333Z" stroke="white" stroke-width="2" stroke-linecap="round" stroke-linejoin="round"/>
<path d="M14 20C15.1046 20 16 19.1046 16 18C16 16.8954 15.1046 16 14 16C12.8954 16 12 16.8954 12 18C12 19.1046 12.8954 20 14 20Z" stroke="white" stroke-width="2" stroke-linecap="round" stroke-linejoin="round"/>
<path d="M22 24.6667C23.1046 24.6667 24 23.7713 24 22.6667C24 21.5622 23.1046 20.6667 22 20.6667C20.8954 20.6667 20 21.5622 20 22.6667C20 23.7713 20.8954 24.6667 22 24.6667Z" stroke="white" stroke-width="2" stroke-linecap="round" stroke-linejoin="round"/>
<path d="M15.7267 19.0066L20.28 21.6599" stroke="white" stroke-width="2" stroke-linecap="round" stroke-linejoin="round"/>
<path d="M20.2734 14.3401L15.7267 16.9934" stroke="white" stroke-width="2" stroke-linecap="round" stroke-linejoin="round"/>
</svg>
